<svg xmlns="http://www.w3.org/2000/svg" xmlns:xlink="http://www.w3.org/1999/xlink" width="94" height="94" viewBox="0 0 94 94"><defs><style>.a,.b,.h{fill:#fff;}.a{stroke:#707070;}.c{fill:#4365f0;}.d,.j{fill:none;}.d{stroke:#fff;stroke-width:2px;}.e{clip-path:url(#a);}.f{clip-path:url(#b);}.g{fill:#161a27;opacity:0.6;}.h{font-size:16px;font-family:PingFang SC Bold, PingFang SC;}.i{stroke:none;}</style><clipPath id="a"><rect class="a" width="61.899" height="60.07"/></clipPath><clipPath id="b"><rect class="b" width="90" height="90" rx="45" transform="translate(0.223 0.224)"/></clipPath></defs><g transform="translate(691 21587)"><rect class="c" width="94" height="94" rx="47" transform="translate(-691 -21587)"/><g class="d" transform="translate(-691 -21587)"><rect class="i" width="94" height="94" rx="47"/><rect class="j" x="1" y="1" width="92" height="92" rx="46"/></g><g class="e" transform="translate(-675.069 -21576.998)"><path class="b" d="M37.013,28.4a11.886,11.886,0,0,0,2.265-7.028c0-6.372-4.893-11.533-10.93-11.533H26.606V.92A.935.935,0,0,0,25.658,0H22.486a.935.935,0,0,0-.948.92V9.835H16.471V.92A.935.935,0,0,0,15.523,0H12.351A.935.935,0,0,0,11.4.92V9.835H.948a.935.935,0,0,0-.948.92v3.1a.931.931,0,0,0,.85.927c3.569.318,5.486,2.645,5.486,5.5V39.355a4.509,4.509,0,0,1-4.349,4.891.947.947,0,0,0-.857.737L.523,48.122a.914.914,0,0,0,.92,1.076H11.4v8.916a.935.935,0,0,0,.948.92h3.172a.935.935,0,0,0,.948-.92V49.2h5.067V58.12a.935.935,0,0,0,.948.92h3.172a.935.935,0,0,0,.948-.92V49.2h4.28a11.16,11.16,0,0,0,10.93-11.378A11.507,11.507,0,0,0,37.013,28.4ZM16.464,17.215h7.765a5.076,5.076,0,1,1,0,10.147H16.464Zm10.3,24.913h-10.3V31.982h10.3a5.076,5.076,0,1,1,0,10.147Z" transform="translate(10.042 0.516)"/></g><g class="f" transform="translate(-689.223 -21585.223)"><path class="g" d="M0,7H92V37H0Z" transform="translate(-0.777 54.224)"/></g><text class="h" transform="translate(-670 -21508)"><tspan x="0" y="0">ARC20</tspan></text></g></svg>